<?xml version="1.0" encoding="UTF-8"?>
<svg id="Layer_1" xmlns="http://www.w3.org/2000/svg" version="1.1" xmlns:svgjs="http://svgjs.dev/svgjs" xmlns:xlink="http://www.w3.org/1999/xlink" viewBox="0 0 512 512">
  <!-- Generator: Adobe Illustrator 29.2.1, SVG Export Plug-In . SVG Version: 2.1.0 Build 116)  -->
  <defs>
    <style>
      .st0 {
        fill: #fff;
      }
    </style>
  </defs>
  <path class="st0" d="M43.9,434.5H0V62.2h512v230.2c-.7-16.3-12.7-30.2-29-32.7-133.9.1-267.9-.4-401.8.3-17.8,1.9-37.8-1.3-55.4.4-8.9.8-18.5,10.4-22.1,18.2-10.6,23.3,3.9,48.4,29.7,49.4h446.5c18-1.3,31.3-15.3,32.2-33.1v139.6h-42.5c1.6-1.6,4.3-1.6,6.5-2.7,9.8-4.7,20.4-19.6,20.9-30.6-.6-9,.9-18.4.4-27.3-1-17.5-15.7-32.1-32.9-34.4-139.2.1-278.5-.3-417.7.4-22.7,4.6-31.2,26.9-30.1,48s.6,18.2,5.9,27.9,11.7,15.2,21.4,18.7ZM249.4,62.7c-77.5.5-168.8,30.1-211.4,98.8-11.5,18.6-34.3,68.8-6.5,81.9s11.7,3.3,17.6,4c128.8.3,257.6-.5,386.4,0,13.2,0,37.5,2.4,48.9-4.4,9.1-5.5,13.6-18.4,12.5-28.5-2.8-26.3-19.7-54.2-36.5-73.9-45.5-53.3-119.1-74.4-187.2-77.7l-23.7-.2Z"/>
  <path d="M512,292.4v2.5c-.9,17.8-14.2,31.8-32.2,33.1H33.3c-25.8-1-40.3-26.1-29.7-49.4,3.6-7.8,13.2-17.4,22.1-18.2,17.7-1.6,37.6,1.6,55.4-.4,133.9-.7,267.9-.2,401.8-.3,16.3,2.5,28.3,16.4,29,32.7ZM397.1,275.3c-7,0-24.6-.3-29.2,5.3-6.2,7.5-6,32,6.8,34.1l66-.3c9.2-4.1,9.3-13.3,8.7-22.2-1.2-19.1-12.6-15.8-27.6-16.4-8.3-.3-16.4-.7-24.7-.6ZM57.9,276.4c-9.3,1.1-16.2,12.3-15.3,21.2,2,19.1,29.7,23.6,36.7,5.6s-5.8-28.7-21.4-26.8ZM138.5,308.9c11.3-11.3,4.2-31.2-11.9-32.6-24.9-2.2-26.9,33.7-6.4,38,6.3,1.3,13.8-.9,18.3-5.4ZM183.9,276.4c-26.5,2.9-17.1,47.6,9.6,36.9,20.6-8.3,13.9-39.4-9.6-36.9Z"/>
  <path d="M469.5,434.5H43.9c-9.7-3.5-16.5-9.8-21.4-18.7s-5.4-17.1-5.9-27.9c-1.1-21.1,7.4-43.4,30.1-48,139.2-.7,278.4-.3,417.7-.4,17.2,2.2,32,16.8,32.9,34.4.5,9-.9,18.3-.4,27.3-.5,11-11.1,25.9-20.9,30.6s-4.9,1.1-6.5,2.7ZM57.3,413.6h392.6c7.9-2.2,16.9-2,20.3-11,2.2-5.9,3.2-22.5,1.8-28.6s-4.4-7.8-9.4-9.7c-136.5-1.3-273.2-.5-409.8-.7-3.8.5-8.7,5.8-9.8,9.3-1.9,6.2-.9,17.7,0,24.4s3.6,12,12,15,1.3.5,2.5,1.2Z"/>
  <path d="M249.4,62.7l23.7.2c68.1,3.3,141.8,24.4,187.2,77.7,16.9,19.8,33.7,47.6,36.5,73.9,1.1,10.2-3.4,23.1-12.5,28.5-11.3,6.8-35.6,4.4-48.9,4.4-128.8-.5-257.6.4-386.4,0-5.9-.7-12.1-1.5-17.6-4-27.9-13.1-5.1-63.4,6.5-81.9C80.7,92.8,171.9,63.2,249.4,62.7ZM248,83.9c-73,.5-166.6,31.9-199,103-2.9,6.4-6.9,17.4-7.9,24.1s1.9,14.5,9.1,14.9l416.7-.3c3-1.5,6.4-4.3,6.9-7.8.6-4.2-.1-8.9-1.4-12.9-25.6-80-116.6-117.1-194.6-120.7l-29.8-.2Z"/>
  <path class="st0" d="M397.1,275.3c8.3-.1,16.5.3,24.7.6,14.9.6,26.4-2.8,27.6,16.4.5,8.9.5,18.1-8.7,22.2l-66,.3c-12.8-2.2-13-26.7-6.8-34.1,4.7-5.6,22.2-5.2,29.2-5.3Z"/>
  <path class="st0" d="M138.5,308.9c-4.6,4.6-12,6.7-18.3,5.4-20.6-4.3-18.6-40.3,6.4-38,16.2,1.4,23.3,21.3,11.9,32.6Z"/>
  <path class="st0" d="M183.9,276.4c23.5-2.5,30.2,28.6,9.6,36.9-26.6,10.7-36-34-9.6-36.9Z"/>
  <path class="st0" d="M57.9,276.4c15.6-1.9,27.2,11.8,21.4,26.8s-34.7,13.5-36.7-5.6c-.9-8.9,6-20.1,15.3-21.2Z"/>
  <path class="st0" d="M57.3,413.6c-1.3-.8-.8-.6-2.5-1.2-8.4-3-10.9-6-12-15s-1.8-18.1,0-24.4,6-8.8,9.8-9.3c136.6.3,273.3-.6,409.8.7,5,1.9,8.2,4.2,9.4,9.7s.4,22.7-1.8,28.6c-3.3,8.9-12.4,8.8-20.3,11.1H57.3Z"/>
  <path class="st0" d="M248,83.9l29.8.2c78,3.6,169,40.7,194.6,120.7,1.3,4,2,8.7,1.4,12.9-.5,3.6-3.9,6.3-6.9,7.8l-416.7.3c-7.2-.4-10.1-8.8-9.1-14.9s5-17.7,7.9-24.1c32.4-71.1,125.9-102.5,199-103ZM172,125.6c-6.4,1-15,10.5-14.2,17.3s10,11.7,17.5,7.3c12.5-7.3,12.4-27-3.3-24.5ZM321.4,125.6c-.4,0-2.4.3-2.8.4-4.1,1-7.2,6.9-6.8,10.8.9,9.1,13.8,20.2,22.6,13.7s-2-26-13-24.9ZM255.2,168.9c.1-.2,2.1-3.6,2.1-3.8.6-1.9.5-3,.6-4.9.2-5.2.7-7-2-11.7-4.6-7.9-14.4-7.4-18.7.4s-2.1,17.7,5.4,22.7,10.2.4,12.7-2.6ZM117.3,173.8c-2.4.4-5.6,2.8-7.1,4.8-7.4,9.7,5.6,22.9,16,14.9s1.7-21.5-8.9-19.7Z"/>
  <path d="M255.2,168.9c-2.5,3-9.4,4.8-12.7,2.6-7.5-4.9-9.8-14.9-5.4-22.7s14.1-8.3,18.7-.4,2.3,6.5,2,11.7,0,3-.6,4.9-2,3.7-2.1,3.8Z"/>
  <path d="M172,125.6c15.7-2.5,15.8,17.2,3.3,24.5s-16.4,2-17.5-7.3,7.8-16.3,14.2-17.3Z"/>
  <path d="M321.4,125.6c11-1.2,23.7,17,13,24.9s-21.7-4.6-22.6-13.7,2.8-9.8,6.8-10.8,2.4-.4,2.8-.4Z"/>
  <path d="M117.3,173.8c10.6-1.8,18.7,12.2,8.9,19.7s-23.4-5.2-16-14.9,4.7-4.4,7.1-4.8Z"/>
</svg>