<?xml version="1.0" encoding="UTF-8"?>
<svg id="Layer_1" xmlns="http://www.w3.org/2000/svg" version="1.1" viewBox="0 0 512 512">
  <!-- Generator: Adobe Illustrator 29.2.1, SVG Export Plug-In . SVG Version: 2.1.0 Build 116)  -->
  <defs>
    <style>
      .st0 {
        fill: #cbcbcb;
      }

      .st1 {
        fill: #ccc;
      }
    </style>
  </defs>
  <path class="st0" d="M512,292v17c-4.3,12.3-11,21.5-24,25.5-149.9,3.5-300.4.5-450.5,1.5-11.3-1.5-24.6-3.3-30.9-14.1l-6.6-11.9v-2c1.4-1.2,1.4-2.7,0-4v-5c1.2-1,1.2-2,0-3v-2l5.8-11.7c4-7,10.4-11.3,17.9-14.1l458.8-1.2c14.7,1.6,24.1,12,29.5,25ZM383.8,283.3c-8.6.8-15.8,1.1-18.4,10.6-2.1,7.9-1.7,24.4,7.6,27.5l67.4.5c12.5-4.2,12.4-32.7,1.3-37.2-2.3-.9-13.7-1.6-17.2-1.8-12.2-.6-28.7-.7-40.7.3ZM55.7,284.2c-4.5,1.1-9.3,6.8-10.9,11.1-9.5,24,24.5,37.2,34.4,16.4s-7.1-31.6-23.4-27.5ZM119.7,284.2c-17.4,3-17.6,35.1,1.8,37.7s29.9-17.6,17.8-31.8-12.6-7.1-19.7-5.8ZM182.8,284.3c-19.8,3.1-17.8,35.2.8,37.6,28.8,3.8,30.6-42.5-.8-37.6Z"/>
  <path class="st1" d="M230.8,70.3c92.4-5.6,202.7,20.2,250.7,106.7,14.4,25.9,31.6,75.1-14,78.1H47.5c-10.4-1.2-24.1-5.3-27.5-16.5-7-22.9,10.8-60.4,24.2-78.9,41.3-56.9,118.1-85.3,186.6-89.4ZM245.8,91.3c-71.4,2.4-161.7,31.1-195,100-3.9,8.2-14.9,35-4.2,40.6l421.3.6c12.6-4.3,1.9-28.9-1.8-37.1-35.3-79.1-141.2-106.7-220.4-104Z"/>
  <path class="st0" d="M487.6,430.6c-4.8,5.3-12.7,11-20.1,11.4H45.5c-12.1-1.1-25.9-18.5-27.4-29.6-3.6-26.8-1.3-60.6,31.4-65.4h417c12.4,1.3,28.2,15.3,30.3,27.7,1.2,7,1.1,30.5.2,37.7-.8,5.7-5.4,14-9.3,18.2ZM52.7,371.2c-12.5,5-10.7,21-9.6,32.2,1.2,12.1,5.6,15.4,17.4,17.6h388c4.4-.3,15.9-3,19-6,5.2-4.9,5.7-28.4,4-35.1s-5.5-7.5-10-8c-12-1.4-28.4.3-41.1,0-78.8-1.7-158.3-1.1-236.9-1.1-43.6,0-87.2-.1-130.8.3Z"/>
  <path class="st1" d="M318.7,133.2c18.4-4.2,28.9,24.8,11.7,26.7-16.7,1.8-24.8-23.7-11.7-26.7Z"/>
  <path class="st1" d="M244.7,150.2c1.5-.3,3-.5,4.5,0,13,3,12.9,27.9.2,29.7-16.4,2.4-18.6-27.1-4.7-29.7Z"/>
  <path class="st1" d="M161.3,157.7c-11.9-10.5,9.1-32.8,20.7-22.2,11.4,10.4-9.7,32-20.7,22.2Z"/>
  <path class="st1" d="M128.7,199.7c-7.4,8.4-22,3.1-19.6-11.1,2.8-16.4,32.1-3,19.6,11.1Z"/>
</svg>